<svg data-v-0dd9719b="" version="1.0" xmlns="http://www.w3.org/2000/svg" xmlns:xlink="http://www.w3.org/1999/xlink" width="100%" height="100%" viewBox="0 0 340.000000 250.000000" preserveAspectRatio="xMidYMid meet" color-interpolation-filters="sRGB" style="margin: auto;"> <rect data-v-0dd9719b="" x="0" y="0" width="100%" height="100%" fill="#fff" fill-opacity="1" class="background"></rect> <rect data-v-0dd9719b="" x="0" y="0" width="100%" height="100%" fill="url(#watermark)" fill-opacity="1" class="watermarklayer"></rect> <g data-v-0dd9719b="" fill="#333" class="icon-text-wrapper icon-svg-group iconsvg" transform="translate(50.024993896484375,99.01922607421875)"><g class="iconsvg-imagesvg" transform="translate(0,0)"><g><rect fill="#333" fill-opacity="0" stroke-width="2" x="0" y="0" width="60" height="51.96154845414393" class="image-rect"></rect> <svg x="0" y="0" width="60" height="51.96154845414393" filtersec="colorsb481620015" class="image-svg-svg primary" style="overflow: visible;"><svg xmlns="http://www.w3.org/2000/svg" viewBox="0 0 115.4699935913086 100"><g fill-rule="evenodd"><path d="M88.47 31.82a5.89 5.89 0 0 0 .45-2.27 6 6 0 1 0-6.37 5.94L98.83 63.7l-21 36.3h8.77l20.62-35.71zM28 43.46a6 6 0 0 0 5.31-8.66L49.05 7.56H91L86.6 0H45.37L27.12 31.61A6 6 0 0 0 28 43.46zM62.76 76.19a6 6 0 0 0-4.88 2.55H25.32l-21-36.3L0 50l20.62 35.71H58a6 6 0 1 0 4.77-9.52z" fill="#00a2e9"></path><path d="M94.85 14.29h-37a6 6 0 1 0 0 7h32.3l21 36.3 4.32-7.59zM87.18 56.23a6 6 0 0 0-5.08 9.06L66.42 92.44H24.5l4.37 7.56H70.1l18.49-32a6 6 0 0 0-1.41-11.75zM25.66 69.75a6 6 0 1 0 6.89-5.88L16.64 36.3 37.6 0h-8.73L8.25 35.71 26.32 67a6 6 0 0 0-.66 2.75z" fill="#096594"></path></g></svg></svg> <!----></g></g> <g transform="translate(67,3.2657737731933594)"><g data-gra="path-name" fill-rule="" class="tp-name iconsvg-namesvg"><g transform="scale(1)"><g><path d="M15.59-13.54L9.78-13.54 9.78 0 4.9 0 4.9-36.21 15.59-36.21Q19.03-36.21 21.57-35.41 24.1-34.62 25.77-33.15 27.44-31.68 28.26-29.61 29.08-27.54 29.08-24.99L29.08-24.99Q29.08-22.46 28.2-20.36 27.31-18.27 25.61-16.75 23.9-15.24 21.38-14.39 18.85-13.54 15.59-13.54L15.59-13.54ZM9.78-32.34L9.78-17.43 15.59-17.43Q17.69-17.43 19.29-17.99 20.9-18.55 21.98-19.54 23.07-20.54 23.62-21.93 24.18-23.32 24.18-24.99L24.18-24.99Q24.18-28.45 22.05-30.4 19.91-32.34 15.59-32.34L15.59-32.34 9.78-32.34ZM43.94-26L43.94-26Q46.24-26 48.18-25.23 50.13-24.46 51.54-23.01 52.96-21.55 53.75-19.42 54.55-17.28 54.55-14.55L54.55-14.55Q54.55-13.49 54.32-13.14 54.1-12.78 53.46-12.78L53.46-12.78 36.43-12.78Q36.49-10.36 37.09-8.57 37.7-6.77 38.76-5.57 39.82-4.37 41.29-3.78 42.75-3.18 44.57-3.18L44.57-3.18Q46.26-3.18 47.49-3.58 48.71-3.97 49.6-4.42 50.48-4.88 51.08-5.27 51.67-5.66 52.1-5.66L52.1-5.66Q52.66-5.66 52.96-5.23L52.96-5.23 54.22-3.59Q53.39-2.58 52.23-1.83 51.06-1.09 49.74-0.61 48.41-0.13 47 0.11 45.58 0.35 44.19 0.35L44.19 0.35Q41.54 0.35 39.3-0.54 37.07-1.44 35.44-3.17 33.81-4.9 32.9-7.45 31.99-10.01 31.99-13.32L31.99-13.32Q31.99-15.99 32.81-18.32 33.63-20.64 35.17-22.35 36.71-24.05 38.94-25.03 41.16-26 43.94-26ZM44.04-22.69L44.04-22.69Q40.78-22.69 38.91-20.81 37.04-18.92 36.59-15.59L36.59-15.59 50.51-15.59Q50.51-17.16 50.08-18.46 49.65-19.76 48.82-20.71 47.98-21.65 46.78-22.17 45.58-22.69 44.04-22.69ZM68.9-26.02L68.9-26.02Q70.57-26.02 72.02-25.66 73.48-25.29 74.66-24.58L74.66-24.58 81.61-24.58 81.61-22.92Q81.61-22.08 80.55-21.86L80.55-21.86 77.64-21.45Q78.5-19.81 78.5-17.79L78.5-17.79Q78.5-15.92 77.78-14.39 77.06-12.86 75.79-11.77 74.51-10.69 72.76-10.11 71-9.53 68.9-9.53L68.9-9.53Q67.11-9.53 65.52-9.96L65.52-9.96Q64.71-9.45 64.29-8.87 63.87-8.29 63.87-7.73L63.87-7.73Q63.87-6.82 64.61-6.35 65.34-5.89 66.55-5.69 67.77-5.48 69.31-5.43 70.85-5.38 72.45-5.27 74.06-5.15 75.6-4.88 77.14-4.6 78.35-3.97 79.56-3.34 80.3-2.22 81.03-1.11 81.03 0.66L81.03 0.66Q81.03 2.3 80.21 3.84 79.39 5.38 77.85 6.58 76.31 7.78 74.08 8.5 71.86 9.22 69.05 9.22L69.05 9.22Q66.25 9.22 64.14 8.67 62.03 8.11 60.64 7.18 59.25 6.24 58.56 5.02 57.86 3.79 57.86 2.45L57.86 2.45Q57.86 0.56 59.06-0.77 60.26-2.1 62.36-2.88L62.36-2.88Q61.27-3.39 60.63-4.23 59.98-5.08 59.98-6.49L59.98-6.49Q59.98-7.05 60.19-7.64 60.39-8.24 60.8-8.82 61.22-9.4 61.83-9.93 62.43-10.46 63.24-10.86L63.24-10.86Q61.35-11.93 60.27-13.68 59.2-15.44 59.2-17.79L59.2-17.79Q59.2-19.66 59.92-21.19 60.64-22.71 61.93-23.79 63.22-24.86 65-25.44 66.78-26.02 68.9-26.02ZM76.89 1.39L76.89 1.39Q76.89 0.43 76.36-0.15 75.83-0.73 74.92-1.05 74.01-1.36 72.82-1.52 71.63-1.67 70.32-1.73 69-1.79 67.64-1.87 66.27-1.95 65.04-2.15L65.04-2.15Q63.6-1.47 62.7-0.48 61.8 0.51 61.8 1.87L61.8 1.87Q61.8 2.73 62.24 3.47 62.69 4.22 63.6 4.76 64.51 5.31 65.88 5.62 67.26 5.94 69.13 5.94L69.13 5.94Q70.95 5.94 72.39 5.61 73.83 5.28 74.83 4.67 75.83 4.07 76.36 3.23 76.89 2.4 76.89 1.39ZM68.9-12.51L68.9-12.51Q70.27-12.51 71.32-12.89 72.36-13.27 73.07-13.95 73.78-14.63 74.13-15.58 74.49-16.52 74.49-17.66L74.49-17.66Q74.49-20.01 73.06-21.4 71.63-22.79 68.9-22.79L68.9-22.79Q66.2-22.79 64.77-21.4 63.34-20.01 63.34-17.66L63.34-17.66Q63.34-16.52 63.71-15.58 64.08-14.63 64.78-13.95 65.49-13.27 66.53-12.89 67.56-12.51 68.9-12.51ZM104.91-16.37L104.91 0 102.91 0Q102.25 0 101.85-0.2 101.45-0.4 101.32-1.06L101.32-1.06 100.81-3.44Q99.8-2.53 98.84-1.81 97.88-1.09 96.82-0.59 95.76-0.1 94.56 0.15 93.36 0.4 91.9 0.4L91.9 0.4Q90.4 0.4 89.1-0.01 87.8-0.43 86.84-1.26 85.88-2.1 85.31-3.37 84.74-4.65 84.74-6.39L84.74-6.39Q84.74-7.91 85.58-9.31 86.41-10.71 88.27-11.8 90.13-12.89 93.13-13.58 96.14-14.28 100.49-14.38L100.49-14.38 100.49-16.37Q100.49-19.35 99.21-20.88 97.93-22.41 95.43-22.41L95.43-22.41Q93.79-22.41 92.67-21.99 91.54-21.58 90.72-21.06 89.9-20.54 89.31-20.12 88.71-19.71 88.13-19.71L88.13-19.71Q87.68-19.71 87.33-19.95 86.99-20.19 86.79-20.54L86.79-20.54 85.98-21.98Q88.1-24.03 90.56-25.04 93.01-26.05 95.99-26.05L95.99-26.05Q98.14-26.05 99.8-25.34 101.47-24.64 102.61-23.37 103.75-22.11 104.33-20.31 104.91-18.52 104.91-16.37L104.91-16.37ZM93.23-2.75L93.23-2.75Q94.42-2.75 95.41-2.99 96.39-3.23 97.26-3.68 98.14-4.12 98.93-4.75 99.73-5.38 100.49-6.19L100.49-6.19 100.49-11.52Q97.38-11.42 95.2-11.03 93.03-10.64 91.67-10.01 90.3-9.37 89.68-8.51 89.07-7.66 89.07-6.59L89.07-6.59Q89.07-5.58 89.39-4.85 89.72-4.12 90.28-3.65 90.83-3.18 91.59-2.97 92.35-2.75 93.23-2.75ZM127.39-23.02L126.38-21.38Q126.08-20.82 125.45-20.82L125.45-20.82Q125.07-20.82 124.59-21.1 124.11-21.38 123.42-21.72 122.72-22.06 121.76-22.35 120.8-22.64 119.49-22.64L119.49-22.64Q118.35-22.64 117.44-22.35 116.53-22.06 115.89-21.55 115.24-21.05 114.9-20.38 114.56-19.71 114.56-18.92L114.56-18.92Q114.56-17.94 115.13-17.28 115.7-16.63 116.63-16.15 117.57-15.67 118.75-15.3 119.94-14.93 121.19-14.52 122.44-14.1 123.63-13.59 124.82-13.09 125.75-12.33 126.69-11.57 127.26-10.47 127.82-9.37 127.82-7.83L127.82-7.83Q127.82-6.06 127.19-4.56 126.56-3.06 125.32-1.96 124.08-0.86 122.29-0.23 120.5 0.4 118.15 0.4L118.15 0.4Q115.47 0.4 113.3-0.47 111.12-1.34 109.61-2.7L109.61-2.7 110.67-4.42Q110.87-4.75 111.15-4.93 111.43-5.1 111.88-5.1L111.88-5.1Q112.34-5.1 112.84-4.75 113.35-4.4 114.07-3.97 114.79-3.54 115.81-3.18 116.83-2.83 118.37-2.83L118.37-2.83Q119.69-2.83 120.67-3.17 121.66-3.51 122.32-4.09 122.97-4.67 123.29-5.43 123.6-6.19 123.6-7.05L123.6-7.05Q123.6-8.11 123.04-8.81 122.47-9.5 121.53-9.99 120.6-10.49 119.4-10.85 118.2-11.22 116.95-11.62 115.7-12.03 114.5-12.54 113.3-13.06 112.36-13.85 111.43-14.63 110.86-15.78 110.29-16.93 110.29-18.57L110.29-18.57Q110.29-20.04 110.9-21.39 111.5-22.74 112.66-23.76 113.83-24.79 115.52-25.39 117.21-26 119.39-26L119.39-26Q121.91-26 123.92-25.2 125.93-24.41 127.39-23.02L127.39-23.02ZM133.05-25.6L137.55-25.6 137.55-9.27Q137.55-6.37 138.89-4.78 140.23-3.18 142.93-3.18L142.93-3.18Q144.9-3.18 146.65-4.12 148.39-5.05 149.86-6.72L149.86-6.72 149.86-25.6 154.35-25.6 154.35 0 151.68 0Q150.72 0 150.46-0.93L150.46-0.93 150.11-3.69Q148.44-1.84 146.37-0.72 144.3 0.4 141.62 0.4L141.62 0.4Q139.52 0.4 137.92-0.29 136.31-0.99 135.23-2.25 134.14-3.51 133.6-5.31 133.05-7.1 133.05-9.27L133.05-9.27 133.05-25.6ZM177.42-23.02L176.41-21.38Q176.11-20.82 175.48-20.82L175.48-20.82Q175.1-20.82 174.62-21.1 174.14-21.38 173.44-21.72 172.75-22.06 171.79-22.35 170.83-22.64 169.51-22.64L169.51-22.64Q168.38-22.64 167.47-22.35 166.56-22.06 165.91-21.55 165.27-21.05 164.93-20.38 164.59-19.71 164.59-18.92L164.59-18.92Q164.59-17.94 165.16-17.28 165.72-16.63 166.66-16.15 167.59-15.67 168.78-15.3 169.97-14.93 171.22-14.52 172.47-14.1 173.66-13.59 174.85-13.09 175.78-12.33 176.72-11.57 177.28-10.47 177.85-9.37 177.85-7.83L177.85-7.83Q177.85-6.06 177.22-4.56 176.59-3.06 175.35-1.96 174.11-0.86 172.32-0.23 170.52 0.4 168.18 0.4L168.18 0.4Q165.5 0.4 163.32-0.47 161.15-1.34 159.64-2.7L159.64-2.7 160.7-4.42Q160.9-4.75 161.18-4.93 161.45-5.1 161.91-5.1L161.91-5.1Q162.36-5.1 162.87-4.75 163.37-4.4 164.09-3.97 164.81-3.54 165.84-3.18 166.86-2.83 168.4-2.83L168.4-2.83Q169.72-2.83 170.7-3.17 171.69-3.51 172.34-4.09 173-4.67 173.32-5.43 173.63-6.19 173.63-7.05L173.63-7.05Q173.63-8.11 173.06-8.81 172.5-9.5 171.56-9.99 170.63-10.49 169.43-10.85 168.23-11.22 166.98-11.62 165.72-12.03 164.52-12.54 163.32-13.06 162.39-13.85 161.45-14.63 160.89-15.78 160.32-16.93 160.32-18.57L160.32-18.57Q160.32-20.04 160.92-21.39 161.53-22.74 162.69-23.76 163.85-24.79 165.55-25.39 167.24-26 169.41-26L169.41-26Q171.94-26 173.95-25.2 175.96-24.41 177.42-23.02L177.42-23.02Z" transform="translate(-4.900000095367432, 36.209999084472656)"></path></g> <!----> <!----> <!----> <!----> <!----> <!----> <!----></g></g> <!----></g></g><defs v-gra="od"></defs></svg>